<?xml version="1.0" encoding="UTF-8" standalone="no"?>
<svg
   xmlns:osb="http://www.openswatchbook.org/uri/2009/osb"
   xmlns:dc="http://purl.org/dc/elements/1.1/"
   xmlns:cc="http://creativecommons.org/ns#"
   xmlns:rdf="http://www.w3.org/1999/02/22-rdf-syntax-ns#"
   xmlns:svg="http://www.w3.org/2000/svg"
   xmlns="http://www.w3.org/2000/svg"
   xmlns:xlink="http://www.w3.org/1999/xlink"
   xmlns:sodipodi="http://sodipodi.sourceforge.net/DTD/sodipodi-0.dtd"
   xmlns:inkscape="http://www.inkscape.org/namespaces/inkscape"
   inkscape:export-ydpi="38.220001"
   inkscape:export-xdpi="38.220001"
   inkscape:export-filename="/home/sireliah/Aktywatory/dragit/logo.png"
   sodipodi:docname="logo.svg"
   inkscape:version="1.0 (4035a4fb49, 2020-05-01)"
   id="svg8"
   version="1.1"
   viewBox="0 0 210 210"
   height="210mm"
   width="210mm">
  <defs
     id="defs2">
    <linearGradient
       osb:paint="solid"
       id="linearGradient3507">
      <stop
         id="stop3505"
         offset="0"
         style="stop-color:#000000;stop-opacity:1;" />
    </linearGradient>
    <linearGradient
       osb:paint="solid"
       id="linearGradient3501">
      <stop
         id="stop3499"
         offset="0"
         style="stop-color:#000000;stop-opacity:1;" />
    </linearGradient>
    <linearGradient
       osb:paint="solid"
       id="linearGradient3495">
      <stop
         id="stop3493"
         offset="0"
         style="stop-color:#000000;stop-opacity:1;" />
    </linearGradient>
    <linearGradient
       osb:paint="solid"
       id="linearGradient3489">
      <stop
         id="stop3487"
         offset="0"
         style="stop-color:#000000;stop-opacity:1;" />
    </linearGradient>
    <linearGradient
       osb:paint="solid"
       id="linearGradient3483">
      <stop
         id="stop3481"
         offset="0"
         style="stop-color:#000000;stop-opacity:1;" />
    </linearGradient>
    <linearGradient
       osb:paint="solid"
       id="linearGradient3477">
      <stop
         id="stop3475"
         offset="0"
         style="stop-color:#000000;stop-opacity:1;" />
    </linearGradient>
    <linearGradient
       osb:paint="solid"
       id="linearGradient3471">
      <stop
         id="stop3469"
         offset="0"
         style="stop-color:#000000;stop-opacity:1;" />
    </linearGradient>
    <linearGradient
       osb:paint="solid"
       id="linearGradient3465">
      <stop
         id="stop3463"
         offset="0"
         style="stop-color:#000000;stop-opacity:1;" />
    </linearGradient>
    <linearGradient
       osb:paint="solid"
       id="linearGradient3152">
      <stop
         id="stop3150"
         offset="0"
         style="stop-color:#000000;stop-opacity:1;" />
    </linearGradient>
  </defs>
  <sodipodi:namedview
     width="296mm"
     units="mm"
     inkscape:window-maximized="1"
     inkscape:window-y="33"
     inkscape:window-x="0"
     inkscape:window-height="1010"
     inkscape:window-width="1920"
     inkscape:snap-nodes="false"
     showgrid="false"
     inkscape:document-rotation="0"
     inkscape:current-layer="layer1"
     inkscape:document-units="mm"
     inkscape:cy="642.20608"
     inkscape:cx="228.21873"
     inkscape:zoom="0.61925569"
     inkscape:pageshadow="2"
     inkscape:pageopacity="0.0"
     borderopacity="1.0"
     bordercolor="#666666"
     pagecolor="#ffffff"
     id="base" />
  <metadata
     id="metadata5">
    <rdf:RDF>
      <cc:Work
         rdf:about="">
        <dc:format>image/svg+xml</dc:format>
        <dc:type
           rdf:resource="http://purl.org/dc/dcmitype/StillImage" />
        <dc:title></dc:title>
      </cc:Work>
    </rdf:RDF>
  </metadata>
  <g
     id="layer1"
     inkscape:groupmode="layer"
     inkscape:label="Layer 1">
    <path
       inkscape:export-ydpi="38.220001"
       inkscape:export-xdpi="38.220001"
       inkscape:export-filename="/home/sireliah/Aktywatory/dragit/logo_ah.png"
       id="path3386"
       d="m 99.443375,203.8266 c -0.82597,-1.81278 -1.826096,-6.58406 -2.005705,-9.5685 l -0.188325,-3.12904 -1.052089,-0.16256 c -5.818714,-0.89904 -8.319262,-1.36611 -11.175677,-2.0875 -1.839716,-0.46462 -3.367967,-0.79938 -3.396085,-0.7439 -0.02819,0.0555 -0.405605,0.85891 -0.838828,1.7854 -1.692307,3.6192 -5.945994,9.32862 -6.952669,9.33208 -0.209282,6.4e-4 -2.858949,-1.01911 -5.88815,-2.26626 l -5.507651,-2.26756 v -1.98469 c 0,-2.37073 0.725163,-6.06392 1.826393,-9.30167 l 0.802207,-2.35858 -1.737968,-0.96492 c -1.731287,-0.96121 -8.734981,-5.66377 -10.418378,-6.99532 l -0.884981,-0.7 -2.716751,2.19335 c -2.741695,2.21348 -5.748914,4.1228 -7.82929,4.97089 l -1.13124,0.46116 -4.429841,-4.42983 -4.429841,-4.42984 0.461166,-1.13124 c 0.845652,-2.07439 2.755012,-5.08463 4.948171,-7.80114 1.272434,-1.57608 2.071919,-2.85608 1.9321,-3.09333 -0.131201,-0.2226 -0.727165,-1.01481 -1.32438,-1.76046 -1.376488,-1.71861 -4.822427,-6.92438 -6.078834,-9.18325 l -0.960425,-1.72674 -2.295685,0.77668 c -3.193542,1.08046 -7.029778,1.82947 -9.370016,1.82947 H 16.82309 l -2.395067,-5.7602 -2.395081,-5.76021 1.562111,-1.45617 c 2.274948,-2.1207 7.273536,-5.30896 9.472729,-6.04202 0.313907,-0.10464 0.163427,-1.20634 -0.59717,-4.37213 -0.559259,-2.32774 -1.231477,-5.72468 -1.493853,-7.54876 -0.26235,-1.82408 -0.568844,-3.40833 -0.681071,-3.52056 -0.11222,-0.11223 -1.486044,-0.32091 -3.052886,-0.46372 -3.531919,-0.32192 -6.294921,-0.88171 -8.6100922,-1.74442 l -1.7794035,-0.66306 v -6.39101 -6.391003 l 1.7794035,-0.663068 c 2.3151712,-0.862708 5.0781732,-1.422499 8.6100922,-1.744416 1.566842,-0.142813 2.94066,-0.351487 3.052886,-0.46372 0.112214,-0.112226 0.418721,-1.696487 0.681071,-3.520565 0.262376,-1.824072 0.934594,-5.221019 1.493853,-7.548756 0.760597,-3.1658 0.911077,-4.267499 0.59717,-4.372131 -2.199193,-0.733068 -7.197781,-3.921332 -9.472729,-6.042021 l -1.562111,-1.456181 2.395081,-5.7602 2.395067,-5.760199 h 1.977513 c 2.364131,0 6.059854,0.726214 9.294488,1.826391 l 2.358583,0.802203 0.966736,-1.737964 c 1.261981,-2.268721 4.705962,-7.472492 6.085153,-9.194468 0.597215,-0.745659 1.193179,-1.537858 1.32438,-1.760458 0.139819,-0.237254 -0.659666,-1.517259 -1.9321,-3.093329 -2.193159,-2.716509 -4.102519,-5.726766 -4.948171,-7.801146 l -0.461166,-1.131242 4.429841,-4.429838 4.429841,-4.42984 1.13124,0.461162 c 2.080376,0.848101 5.087595,2.757411 7.82929,4.970896 l 2.716751,2.193361 0.884981,-0.700005 c 1.678679,-1.327824 8.684836,-6.032861 10.40716,-6.989015 L 65.044348,29.672887 64.267667,27.3772 c -1.080454,-3.193542 -1.829471,-7.029777 -1.829471,-9.370017 v -1.977511 l 5.760203,-2.395067 5.760202,-2.39508 1.456177,1.562107 c 2.12069,2.274948 5.308957,7.273539 6.04202,9.472728 0.104657,0.31391 1.206334,0.163431 4.372133,-0.597165 2.327737,-0.559261 5.724678,-1.23148 7.54875,-1.493855 1.824085,-0.26235 3.408339,-0.568843 3.520565,-0.681072 0.11222,-0.112216 0.320907,-1.486041 0.463714,-3.052888 0.32193,-3.531919 0.881715,-6.294916 1.744425,-8.610087 l 0.66307,-1.7794037 h 6.390995 6.391 l 0.66308,1.7794037 c 0.86271,2.315171 1.42249,5.078168 1.74442,8.610087 0.1428,1.566847 0.35148,2.94066 0.46371,3.052888 0.11222,0.112216 1.69649,0.418722 3.52057,0.681072 1.82407,0.262375 5.2076,0.931341 7.51894,1.486605 2.31134,0.555263 4.23619,0.968759 4.27744,0.918863 0.0412,-0.04983 0.38867,-0.809363 0.77205,-1.687735 0.99452,-2.27856 3.55717,-6.140568 5.33776,-8.04414 l 1.52421,-1.629513 5.75454,2.399845 5.75454,2.399845 v 1.978792 c 0,2.365309 -0.72603,6.060582 -1.82639,9.29577 l -0.8022,2.358584 1.73796,0.964916 c 1.73129,0.961214 8.73498,5.663779 10.41838,6.995331 l 0.88498,0.700005 2.71675,-2.193361 c 2.7417,-2.213485 5.74892,-4.122795 7.82929,-4.970896 l 1.13124,-0.461162 4.42984,4.42984 4.42984,4.429838 -0.46116,1.131242 c -0.84566,2.07438 -2.75502,5.084637 -4.94817,7.801146 -1.27244,1.57607 -2.07192,2.856075 -1.9321,3.093329 0.1312,0.2226 0.72716,1.014799 1.32438,1.760458 1.37632,1.718402 4.82239,6.924287 6.07845,9.182555 l 0.96004,1.726037 2.23204,-0.769255 c 3.06817,-1.057418 7.06806,-1.835499 9.4357,-1.835499 h 1.9788 l 2.39984,5.754537 2.39985,5.754538 -1.56815,1.461843 c -2.2807,2.126082 -7.27675,5.313668 -9.47879,6.047683 -0.31391,0.104658 -0.16343,1.206331 0.59716,4.372131 0.55927,2.327737 1.23149,5.724684 1.49386,7.548756 0.26235,1.824078 0.56884,3.408332 0.68107,3.520565 0.11222,0.112233 1.48604,0.320907 3.05289,0.46372 3.53192,0.321917 6.29491,0.881708 8.61009,1.744416 l 1.7794,0.663068 v 6.391003 6.39101 l -1.7794,0.66306 c -2.31518,0.86271 -5.07817,1.4225 -8.61009,1.74442 -1.56685,0.14281 -2.94066,0.35148 -3.05289,0.46372 -0.11222,0.11222 -0.41872,1.69648 -0.68107,3.52056 -0.26237,1.82408 -0.93134,5.20761 -1.48661,7.51895 -0.55526,2.31134 -0.96875,4.22088 -0.91886,4.24341 3.83675,1.73331 8.20139,4.50138 10.13491,6.4276 l 1.23196,1.22731 -2.40258,5.76111 -2.40259,5.76111 h -1.9788 c -2.3653,0 -6.06057,-0.72603 -9.29577,-1.82639 l -2.35858,-0.80221 -0.96673,1.73797 c -1.26198,2.26872 -4.70596,7.47248 -6.08515,9.19447 -0.59722,0.74565 -1.19318,1.53786 -1.32438,1.76046 -0.13982,0.23725 0.65966,1.51725 1.9321,3.09333 2.19315,2.71651 4.10251,5.72675 4.94817,7.80114 l 0.46116,1.13124 -4.42984,4.42984 -4.42984,4.42983 -1.13124,-0.46116 c -2.08037,-0.84809 -5.08759,-2.75741 -7.82929,-4.97089 l -2.71675,-2.19335 -0.88498,0.7 c -1.67839,1.32758 -8.68471,6.03278 -10.40647,6.98862 l -1.72603,0.95821 0.81594,2.34629 c 1.04446,3.00331 1.78881,6.89997 1.78881,9.3643 v 1.9334 l -5.7602,2.39508 -5.7602,2.39507 -1.45618,-1.5621 c -2.12618,-2.28085 -5.30917,-7.27418 -6.04603,-9.48476 -0.1108,-0.33228 -0.92243,-0.23507 -3.52479,0.42219 -2.88749,0.72926 -5.38653,1.19659 -11.21166,2.09662 l -1.05209,0.16256 -0.18832,3.12904 c -0.17961,2.98444 -1.17974,7.75572 -2.0057,9.5685 l -0.38619,0.84759 h -6.3309 -6.330895 z m -2.434088,-50.4405 v -19.76737 l -2.260905,-0.92849 c -6.850221,-2.81318 -13.113641,-9.06913 -15.903179,-15.88423 l -0.936435,-2.2878 H 58.109585 38.310401 l 0.235923,1.77939 c 0.690389,5.20692 3.711133,14.53192 6.47499,19.98817 7.378161,14.56559 20.261815,26.37113 35.549764,32.57492 4.873958,1.97783 12.977074,4.18456 15.675616,4.26895 l 0.762593,0.0239 z m 26.342463,18.21979 c 18.71795,-4.7589 35.16128,-17.9741 43.94785,-35.32012 2.76385,-5.45625 5.7846,-14.78125 6.47498,-19.98817 l 0.23592,-1.77939 h -19.79917 -19.79919 l -0.93644,2.2878 c -2.78954,6.8151 -9.05295,13.07105 -15.90317,15.88423 l -2.26091,0.92849 v 19.79918 19.79919 l 1.77939,-0.23594 c 0.97868,-0.12975 3.796,-0.74862 6.26074,-1.37527 z m -11.58427,-54.53801 c 2.56478,-1.25482 4.83932,-3.53169 6.1066,-6.11278 0.91038,-1.85422 0.99632,-2.33626 0.99632,-5.58806 0,-3.24887 -0.0866,-3.73588 -0.9948,-5.592377 -1.16261,-2.37664 -3.85591,-5.154987 -5.88348,-6.069304 l -1.42555,-0.64283 v -2.998911 -2.998919 h -3.89772 -3.89771 l -0.004,2.796188 -0.004,2.796194 -2.08414,0.970009 c -2.596055,1.208252 -4.939761,3.515589 -6.211644,6.115203 -1.238937,2.532307 -1.552922,6.565937 -0.731131,9.392767 1.087724,3.74164 4.66127,7.42836 8.345545,8.60984 0.99797,0.32003 2.61058,0.45992 4.60514,0.3995 2.58485,-0.0783 3.3867,-0.24824 5.07965,-1.07652 z M 78.837264,93.954962 c 2.813172,-6.850233 9.069121,-13.113637 15.884225,-15.903176 l 2.287798,-0.936439 V 57.316166 37.516985 l -1.77939,0.235923 c -5.835614,0.773738 -15.283361,3.964412 -21.268004,7.182575 -12.26992,6.597988 -22.743291,17.278434 -28.940579,29.512826 -2.763857,5.456244 -5.784601,14.781244 -6.47499,19.988168 l -0.235923,1.779397 h 19.799184 19.799183 z m 94.937316,0.481515 C 173.0842,89.229553 170.06345,79.904553 167.2996,74.448309 161.1023,62.213917 150.62893,51.533471 138.35902,44.935483 132.37438,41.71732 122.92663,38.526646 117.09101,37.752908 l -1.77939,-0.235923 v 19.799181 19.799181 l 2.2878,0.936439 c 6.81511,2.789539 13.07106,9.052943 15.88423,15.903176 l 0.92849,2.260912 h 19.79918 19.79918 z"
       style="fill:#d45500;fill-opacity:1;stroke:none;stroke-width:0.77764;stroke-miterlimit:4;stroke-dasharray:none;stroke-opacity:1;paint-order:fill markers stroke" />
    <circle
       transform="rotate(-85.056261)"
       inkscape:export-ydpi="38.220001"
       inkscape:export-xdpi="38.220001"
       inkscape:export-filename="/home/sireliah/Aktywatory/dragit/logo_ah.png"
       r="69.677223"
       cy="114.09201"
       cx="-97.083488"
       id="path3388"
       style="fill:#ffffff;fill-opacity:1;stroke:none;stroke-width:0.778;stroke-linecap:round;stroke-linejoin:round;stroke-miterlimit:4;stroke-dasharray:none;stroke-opacity:1;paint-order:fill markers stroke" />
    <ellipse
       inkscape:export-ydpi="38.220001"
       inkscape:export-xdpi="38.220001"
       inkscape:export-filename="/home/sireliah/Aktywatory/dragit/logo_ah.png"
       ry="2.203367"
       rx="1.7714649"
       cy="98.747276"
       cx="44.276993"
       id="path934"
       style="fill:#000000;stroke-width:1.36673;stroke-miterlimit:4;stroke-dasharray:none" />
    <ellipse
       inkscape:export-ydpi="38.220001"
       inkscape:export-xdpi="38.220001"
       inkscape:export-filename="/home/sireliah/Aktywatory/dragit/logo_ah.png"
       inkscape:transform-center-y="-0.040025306"
       inkscape:transform-center-x="0.07610678"
       transform="matrix(0.96256578,0.27104818,-0.34133077,0.93994325,0,0)"
       ry="1.4783763"
       rx="1.1864693"
       cy="82.795731"
       cx="76.087852"
       id="path936"
       style="fill:#ffffff;stroke-width:1.41635;stroke-miterlimit:4;stroke-dasharray:none" />
    <path
       inkscape:export-ydpi="38.220001"
       inkscape:export-xdpi="38.220001"
       inkscape:export-filename="/home/sireliah/Aktywatory/dragit/logo_ah.png"
       sodipodi:nodetypes="ccc"
       id="path1007"
       d="M 30.540401,114.47207 44.453448,99.244225 59.309767,115.06214"
       style="fill:none;stroke:#000000;stroke-width:0.923109;stroke-linecap:round;stroke-linejoin:round;stroke-miterlimit:4;stroke-dasharray:none;stroke-opacity:1" />
    <path
       inkscape:export-ydpi="38.220001"
       inkscape:export-xdpi="38.220001"
       inkscape:export-filename="/home/sireliah/Aktywatory/dragit/logo_ah.png"
       sodipodi:nodetypes="cccccccccc"
       d="m 129.91727,105.68416 h 10.79817 l 11.22472,6.05374 3.7935,-6.05374 h 28.78785 v 15.35821 l -2.06624,4.8366 -4.59832,1.34231 h -47.93968 z"
       style="fill:#000000;stroke-width:0.202137"
       id="rect835" />
    <path
       inkscape:export-ydpi="38.220001"
       inkscape:export-xdpi="38.220001"
       inkscape:export-filename="/home/sireliah/Aktywatory/dragit/logo_ah.png"
       sodipodi:nodetypes="ccccccccc"
       d="m 112.79904,104.22639 4.98375,-1.55836 h 12.10392 v 28.99949 h -15.53525 l -2.72659,-0.71682 -0.5873,-3.52231 v -18.49321 z"
       style="fill:#000000;stroke-width:0.241076"
       id="rect837" />
    <path
       inkscape:export-ydpi="38.220001"
       inkscape:export-xdpi="38.220001"
       inkscape:export-filename="/home/sireliah/Aktywatory/dragit/logo_ah.png"
       sodipodi:nodetypes="ccccccccccccccccc"
       d="m 92.018461,135.09994 1.055961,-0.86238 8.815808,-4.24962 h 52.99403 l 7.38157,3.0582 0.72946,0.42965 0.32042,1.12172 0.12401,7.02968 -0.16938,0.96896 -0.40257,0.67414 -3.67191,2.94723 -62.397179,0.0211 -4.421574,-2.23552 -0.511247,-0.38379 -0.209885,-0.80664 0.0155,-6.58997 z"
       style="fill:#000000;stroke-width:0.241076;paint-order:stroke fill markers"
       id="rect839" />
    <path
       inkscape:export-ydpi="38.220001"
       inkscape:export-xdpi="38.220001"
       inkscape:export-filename="/home/sireliah/Aktywatory/dragit/logo_ah.png"
       id="path860"
       d="M 63.556829,60.595586 54.171858,58.767288 44.230222,49.212182"
       style="fill:none;stroke:#000000;stroke-width:1.82231;stroke-linecap:butt;stroke-linejoin:miter;stroke-miterlimit:4;stroke-dasharray:none;stroke-opacity:1" />
    <path
       inkscape:export-ydpi="38.220001"
       inkscape:export-xdpi="38.220001"
       inkscape:export-filename="/home/sireliah/Aktywatory/dragit/logo_ah.png"
       id="path862"
       d="M 98.269662,83.250103 139.98741,107.73727"
       style="fill:none;stroke:#000000;stroke-width:1.82231;stroke-linecap:butt;stroke-linejoin:miter;stroke-miterlimit:4;stroke-dasharray:none;stroke-opacity:1" />
    <path
       inkscape:export-ydpi="38.220001"
       inkscape:export-xdpi="38.220001"
       inkscape:export-filename="/home/sireliah/Aktywatory/dragit/logo_ah.png"
       id="path864"
       d="m 172.48511,106.33247 9.5778,-10.081503 v 9.433193"
       style="fill:none;stroke:#000000;stroke-width:1.82231;stroke-linecap:butt;stroke-linejoin:round;stroke-miterlimit:4;stroke-dasharray:none;stroke-opacity:1" />
    <path
       inkscape:export-ydpi="38.220001"
       inkscape:export-xdpi="38.220001"
       inkscape:export-filename="/home/sireliah/Aktywatory/dragit/logo_ah.png"
       id="path866"
       d="M 182.35809,96.95359 73.751641,53.707598"
       style="fill:none;stroke:#000000;stroke-width:0.241076px;stroke-linecap:butt;stroke-linejoin:miter;stroke-opacity:1" />
    <path
       inkscape:export-ydpi="38.220001"
       inkscape:export-xdpi="38.220001"
       inkscape:export-filename="/home/sireliah/Aktywatory/dragit/logo_ah.png"
       id="path870"
       d="M 73.365394,52.540327 181.74986,95.824859"
       style="fill:none;stroke:#000000;stroke-width:0.241076px;stroke-linecap:butt;stroke-linejoin:miter;stroke-opacity:1" />
    <path
       inkscape:export-ydpi="38.220001"
       inkscape:export-xdpi="38.220001"
       inkscape:export-filename="/home/sireliah/Aktywatory/dragit/logo_ah.png"
       id="path874"
       d="M 111.05772,131.68987 105.21505,126.36516 82.730002,87.575721 69.787669,61.296005"
       style="fill:none;stroke:#000000;stroke-width:2.73346;stroke-linecap:butt;stroke-linejoin:miter;stroke-miterlimit:4;stroke-dasharray:none;stroke-opacity:1" />
    <path
       inkscape:export-ydpi="38.220001"
       inkscape:export-xdpi="38.220001"
       inkscape:export-filename="/home/sireliah/Aktywatory/dragit/logo_ah.png"
       id="path876"
       d="M 63.556829,60.595586 79.240022,62.90247"
       style="fill:none;stroke:#000000;stroke-width:1.82231;stroke-linecap:butt;stroke-linejoin:miter;stroke-miterlimit:4;stroke-dasharray:none;stroke-opacity:1" />
    <path
       inkscape:export-ydpi="38.220001"
       inkscape:export-xdpi="38.220001"
       inkscape:export-filename="/home/sireliah/Aktywatory/dragit/logo_ah.png"
       id="path878"
       d="M 110.69367,117.89618 98.269662,83.250103 70.180932,51.726155 44.230222,49.212182"
       style="fill:none;stroke:#000000;stroke-width:2.73346;stroke-linecap:butt;stroke-linejoin:miter;stroke-miterlimit:4;stroke-dasharray:none;stroke-opacity:1" />
    <path
       inkscape:export-ydpi="38.220001"
       inkscape:export-xdpi="38.220001"
       inkscape:export-filename="/home/sireliah/Aktywatory/dragit/logo_ah.png"
       id="path880"
       d="m 104.6142,123.75875 4.41819,-8.23486 -10.213351,-1.23561 6.144171,-9.64996 -10.868182,0.85757 6.714732,-11.794503 -12.423379,0.648137 8.979764,-11.511181 -15.67654,0.340547 7.243862,-9.437205 -11.820087,-0.787235 3.384462,-8.974597"
       style="fill:none;stroke:#000000;stroke-width:1.64524;stroke-linecap:butt;stroke-linejoin:miter;stroke-miterlimit:4;stroke-dasharray:none;stroke-opacity:1" />
    <path
       inkscape:export-ydpi="38.220001"
       inkscape:export-xdpi="38.220001"
       inkscape:export-filename="/home/sireliah/Aktywatory/dragit/logo_ah.png"
       id="path882"
       d="m 50.786738,54.84594 4.13787,-4.052348 2.876819,7.697997 4.387994,-6.937761 3.96145,7.628767"
       style="fill:none;stroke:#000000;stroke-width:1.31621;stroke-linecap:butt;stroke-linejoin:miter;stroke-miterlimit:4;stroke-dasharray:none;stroke-opacity:1" />
    <path
       inkscape:export-ydpi="38.220001"
       inkscape:export-xdpi="38.220001"
       inkscape:export-filename="/home/sireliah/Aktywatory/dragit/logo_ah.png"
       id="path884"
       d="m 65.006927,60.001431 4.902732,-7.526989 2.418788,9.254525"
       style="fill:none;stroke:#000000;stroke-width:1.52148;stroke-linecap:butt;stroke-linejoin:miter;stroke-miterlimit:4;stroke-dasharray:none;stroke-opacity:1" />
    <path
       inkscape:export-ydpi="38.220001"
       inkscape:export-xdpi="38.220001"
       inkscape:export-filename="/home/sireliah/Aktywatory/dragit/logo_ah.png"
       id="path886"
       d="M 111.37538,130.43062 69.777398,52.74302"
       style="fill:none;stroke:#000000;stroke-width:0.241076px;stroke-linecap:butt;stroke-linejoin:miter;stroke-opacity:1" />
    <path
       inkscape:export-ydpi="38.220001"
       inkscape:export-xdpi="38.220001"
       inkscape:export-filename="/home/sireliah/Aktywatory/dragit/logo_ah.png"
       id="path888"
       d="M 112.00589,128.47917 71.178394,52.698607"
       style="fill:none;stroke:#000000;stroke-width:1.36673;stroke-linecap:butt;stroke-linejoin:miter;stroke-miterlimit:4;stroke-dasharray:none;stroke-opacity:1" />
    <path
       inkscape:export-ydpi="38.220001"
       inkscape:export-xdpi="38.220001"
       inkscape:export-filename="/home/sireliah/Aktywatory/dragit/logo_ah.png"
       id="path890"
       d="m 44.401779,49.410157 28.607892,5.966725"
       style="fill:none;stroke:#000000;stroke-width:0.241076px;stroke-linecap:butt;stroke-linejoin:miter;stroke-opacity:1" />
    <path
       inkscape:export-ydpi="38.220001"
       inkscape:export-xdpi="38.220001"
       inkscape:export-filename="/home/sireliah/Aktywatory/dragit/logo_ah.png"
       id="path892"
       d="M 45.664103,50.00577 77.380754,61.560478"
       style="fill:none;stroke:#000000;stroke-width:1.36673;stroke-linecap:butt;stroke-linejoin:miter;stroke-miterlimit:4;stroke-dasharray:none;stroke-opacity:1" />
    <rect
       inkscape:export-ydpi="38.220001"
       inkscape:export-xdpi="38.220001"
       inkscape:export-filename="/home/sireliah/Aktywatory/dragit/logo_ah.png"
       y="124.32761"
       x="131.01262"
       height="7.4589891"
       width="14.419613"
       id="rect896"
       style="fill:#000000;stroke-width:1.36673;stroke-miterlimit:4;stroke-dasharray:none" />
    <path
       inkscape:export-ydpi="38.220001"
       inkscape:export-xdpi="38.220001"
       inkscape:export-filename="/home/sireliah/Aktywatory/dragit/logo_ah.png"
       sodipodi:nodetypes="cccccccccc"
       d="m 113.3292,104.43733 0.93435,-0.39861 h 2.30026 v 17.86411 h -2.57026 l -2.49446,-0.3784 0.007,-1.19284 -0.0294,-11.29558 1.22609,-3.49405 z"
       style="fill:#ffffff;stroke-width:0.872421;stroke-miterlimit:4;stroke-dasharray:none"
       id="rect898" />
    <circle
       inkscape:export-ydpi="38.220001"
       inkscape:export-xdpi="38.220001"
       inkscape:export-filename="/home/sireliah/Aktywatory/dragit/logo_ah.png"
       r="2.115618"
       cy="54.113739"
       cx="72.411591"
       id="path905"
       style="fill:#000000;stroke-width:1.36673;stroke-miterlimit:4;stroke-dasharray:none" />
    <circle
       inkscape:export-ydpi="38.220001"
       inkscape:export-xdpi="38.220001"
       inkscape:export-filename="/home/sireliah/Aktywatory/dragit/logo_ah.png"
       r="3.2338817"
       cy="49.814026"
       cx="44.723389"
       id="path907"
       style="fill:#000000;stroke-width:1.36673;stroke-miterlimit:4;stroke-dasharray:none" />
    <circle
       inkscape:export-ydpi="38.220001"
       inkscape:export-xdpi="38.220001"
       inkscape:export-filename="/home/sireliah/Aktywatory/dragit/logo_ah.png"
       r="2.0704982"
       cy="97.163574"
       cx="181.31291"
       id="path911"
       style="fill:#000000;stroke-width:1.36673;stroke-miterlimit:4;stroke-dasharray:none" />
    <path
       inkscape:export-ydpi="38.220001"
       inkscape:export-xdpi="38.220001"
       inkscape:export-filename="/home/sireliah/Aktywatory/dragit/logo_ah.png"
       id="path917"
       d="M 42.197917,49.572995 V 89.337469"
       style="fill:none;stroke:#000000;stroke-width:0.241076px;stroke-linecap:butt;stroke-linejoin:miter;stroke-opacity:1" />
    <path
       inkscape:export-ydpi="38.220001"
       inkscape:export-xdpi="38.220001"
       inkscape:export-filename="/home/sireliah/Aktywatory/dragit/logo_ah.png"
       id="path919"
       d="M 46.422705,49.666171 V 89.615693"
       style="fill:none;stroke:#000000;stroke-width:0.241076px;stroke-linecap:butt;stroke-linejoin:miter;stroke-opacity:1" />
    <path
       inkscape:export-ydpi="38.220001"
       inkscape:export-xdpi="38.220001"
       inkscape:export-filename="/home/sireliah/Aktywatory/dragit/logo_ah.png"
       sodipodi:nodetypes="sssssss"
       d="m 44.251709,85.973956 c 1.54505,0 3.033406,1.263319 2.7889,2.7889 l -0.946813,5.907596 c -0.244506,1.525583 -0.297037,2.788897 -1.842087,2.788897 -1.545051,0 -1.952874,-1.39267 -2.128579,-2.927688 l -0.660321,-5.768805 c -0.175706,-1.535027 1.243849,-2.7889 2.7889,-2.7889 z"
       style="fill:#000000;stroke-width:1.36673;stroke-miterlimit:4;stroke-dasharray:none"
       id="rect921" />
    <rect
       inkscape:export-ydpi="38.220001"
       inkscape:export-xdpi="38.220001"
       inkscape:export-filename="/home/sireliah/Aktywatory/dragit/logo_ah.png"
       ry="0.17758659"
       y="114.2448"
       x="28.872761"
       height="21.14889"
       width="30.968475"
       id="rect956"
       style="fill:#ffcc00;stroke:none;stroke-width:0.140603;stroke-miterlimit:4;stroke-dasharray:none" />
    <rect
       inkscape:export-ydpi="38.220001"
       inkscape:export-xdpi="38.220001"
       inkscape:export-filename="/home/sireliah/Aktywatory/dragit/logo_ah.png"
       ry="0.15335619"
       y="113.60355"
       x="28.318409"
       height="5.305778"
       width="6.4125061"
       id="rect958"
       style="fill:#ffdd55;fill-opacity:1;stroke:none;stroke-width:0.140603;stroke-linejoin:bevel;stroke-miterlimit:4;stroke-dasharray:none" />
    <rect
       inkscape:export-ydpi="38.220001"
       inkscape:export-xdpi="38.220001"
       inkscape:export-filename="/home/sireliah/Aktywatory/dragit/logo_ah.png"
       style="fill:#ffdd55;fill-opacity:1;stroke:none;stroke-width:0.140603;stroke-linejoin:bevel;stroke-miterlimit:4;stroke-dasharray:none"
       id="rect958-3"
       width="6.4125061"
       height="5.305778"
       x="28.278461"
       y="130.58109"
       ry="0.15335619" />
    <rect
       inkscape:export-ydpi="38.220001"
       inkscape:export-xdpi="38.220001"
       inkscape:export-filename="/home/sireliah/Aktywatory/dragit/logo_ah.png"
       ry="0.15335619"
       y="130.78528"
       x="53.929642"
       height="5.305778"
       width="6.4125061"
       id="rect958-3-6"
       style="fill:#ffdd55;fill-opacity:1;stroke:none;stroke-width:0.140603;stroke-linejoin:bevel;stroke-miterlimit:4;stroke-dasharray:none" />
    <rect
       inkscape:export-ydpi="38.220001"
       inkscape:export-xdpi="38.220001"
       inkscape:export-filename="/home/sireliah/Aktywatory/dragit/logo_ah.png"
       style="fill:#ffdd55;fill-opacity:1;stroke:none;stroke-width:0.140603;stroke-linejoin:bevel;stroke-miterlimit:4;stroke-dasharray:none"
       id="rect958-3-6-7"
       width="6.4125061"
       height="5.305778"
       x="53.866825"
       y="113.64936"
       ry="0.15335619" />
    <rect
       inkscape:export-ydpi="38.220001"
       inkscape:export-xdpi="38.220001"
       inkscape:export-filename="/home/sireliah/Aktywatory/dragit/logo_ah.png"
       ry="0.21249883"
       y="106.7346"
       x="180.05405"
       height="3.6921058"
       width="8.0696983"
       id="rect1011"
       style="fill:#000000;stroke-width:0.911159;stroke-linejoin:round;stroke-miterlimit:4;stroke-dasharray:none" />
    <rect
       inkscape:export-ydpi="38.220001"
       inkscape:export-xdpi="38.220001"
       inkscape:export-filename="/home/sireliah/Aktywatory/dragit/logo_ah.png"
       style="fill:#000000;stroke-width:0.911159;stroke-linejoin:round;stroke-miterlimit:4;stroke-dasharray:none"
       id="rect1011-5"
       width="8.0696983"
       height="3.6921058"
       x="180.10825"
       y="110.84811"
       ry="0.21249883" />
    <rect
       inkscape:export-ydpi="38.220001"
       inkscape:export-xdpi="38.220001"
       inkscape:export-filename="/home/sireliah/Aktywatory/dragit/logo_ah.png"
       ry="0.21249883"
       y="114.98335"
       x="180.13072"
       height="3.6921058"
       width="8.0696983"
       id="rect1011-5-3"
       style="fill:#000000;stroke-width:0.911159;stroke-linejoin:round;stroke-miterlimit:4;stroke-dasharray:none" />
    <rect
       inkscape:export-ydpi="38.220001"
       inkscape:export-xdpi="38.220001"
       inkscape:export-filename="/home/sireliah/Aktywatory/dragit/logo_ah.png"
       ry="0.21249883"
       y="107.85876"
       x="172.28914"
       height="8.1786718"
       width="0.54286379"
       id="rect1047"
       style="fill:#ffffff;stroke-width:0.911159;stroke-linejoin:round;stroke-miterlimit:4;stroke-dasharray:none" />
    <rect
       inkscape:export-ydpi="38.220001"
       inkscape:export-xdpi="38.220001"
       inkscape:export-filename="/home/sireliah/Aktywatory/dragit/logo_ah.png"
       style="fill:#ffffff;stroke-width:0.911159;stroke-linejoin:round;stroke-miterlimit:4;stroke-dasharray:none"
       id="rect1047-5"
       width="0.54286379"
       height="8.1786718"
       x="173.04092"
       y="107.85876"
       ry="0.21249883" />
    <rect
       inkscape:export-ydpi="38.220001"
       inkscape:export-xdpi="38.220001"
       inkscape:export-filename="/home/sireliah/Aktywatory/dragit/logo_ah.png"
       style="fill:#ffffff;stroke-width:0.911159;stroke-linejoin:round;stroke-miterlimit:4;stroke-dasharray:none"
       id="rect1047-2"
       width="0.54286379"
       height="8.1786718"
       x="173.78316"
       y="107.8712"
       ry="0.21249883" />
    <rect
       inkscape:export-ydpi="38.220001"
       inkscape:export-xdpi="38.220001"
       inkscape:export-filename="/home/sireliah/Aktywatory/dragit/logo_ah.png"
       ry="0.21249883"
       y="107.8712"
       x="174.53494"
       height="8.1786718"
       width="0.54286379"
       id="rect1047-5-9"
       style="fill:#ffffff;stroke-width:0.911159;stroke-linejoin:round;stroke-miterlimit:4;stroke-dasharray:none" />
    <rect
       inkscape:export-ydpi="38.220001"
       inkscape:export-xdpi="38.220001"
       inkscape:export-filename="/home/sireliah/Aktywatory/dragit/logo_ah.png"
       style="fill:#ffffff;stroke-width:0.911159;stroke-linejoin:round;stroke-miterlimit:4;stroke-dasharray:none"
       id="rect1047-1"
       width="0.54286379"
       height="8.1786718"
       x="175.25517"
       y="107.85734"
       ry="0.21249883" />
    <rect
       inkscape:export-ydpi="38.220001"
       inkscape:export-xdpi="38.220001"
       inkscape:export-filename="/home/sireliah/Aktywatory/dragit/logo_ah.png"
       ry="0.21249883"
       y="107.85734"
       x="176.00696"
       height="8.1786718"
       width="0.54286379"
       id="rect1047-5-2"
       style="fill:#ffffff;stroke-width:0.911159;stroke-linejoin:round;stroke-miterlimit:4;stroke-dasharray:none" />
    <ellipse
       inkscape:export-ydpi="38.220001"
       inkscape:export-xdpi="38.220001"
       inkscape:export-filename="/home/sireliah/Aktywatory/dragit/logo_ah.png"
       inkscape:transform-center-y="-0.082210673"
       inkscape:transform-center-x="0.1322607"
       transform="matrix(0.82223828,0.5691434,-0.58536064,0.81077304,0,0)"
       ry="0.90551633"
       rx="0.37456945"
       cy="55.990128"
       cx="95.334991"
       id="path1116"
       style="fill:#000000;stroke-width:1.6316;stroke-linecap:round;stroke-linejoin:round;stroke-miterlimit:4;stroke-dasharray:none" />
    <circle
       inkscape:export-ydpi="38.220001"
       inkscape:export-xdpi="38.220001"
       inkscape:export-filename="/home/sireliah/Aktywatory/dragit/logo_ah.png"
       r="3.9965723"
       cy="139.16855"
       cx="98.215843"
       id="path1120"
       style="fill:#ffffff;stroke-width:0.911159;stroke-linecap:round;stroke-linejoin:round;stroke-miterlimit:4;stroke-dasharray:none" />
    <circle
       inkscape:export-ydpi="38.220001"
       inkscape:export-xdpi="38.220001"
       inkscape:export-filename="/home/sireliah/Aktywatory/dragit/logo_ah.png"
       style="fill:#000000;stroke-width:0.896347;stroke-linecap:round;stroke-linejoin:round;stroke-miterlimit:4;stroke-dasharray:none"
       id="path1120-0"
       cx="99.026939"
       cy="139.12436"
       r="3.9316299" />
    <circle
       inkscape:export-ydpi="38.220001"
       inkscape:export-xdpi="38.220001"
       inkscape:export-filename="/home/sireliah/Aktywatory/dragit/logo_ah.png"
       style="fill:#ffffff;stroke-width:0.911159;stroke-linecap:round;stroke-linejoin:round;stroke-miterlimit:4;stroke-dasharray:none"
       id="path1120-9"
       cx="156.23579"
       cy="139.22668"
       r="3.9965723" />
    <circle
       inkscape:export-ydpi="38.220001"
       inkscape:export-xdpi="38.220001"
       inkscape:export-filename="/home/sireliah/Aktywatory/dragit/logo_ah.png"
       r="3.9316299"
       cy="139.11508"
       cx="155.37866"
       id="path1120-0-3"
       style="fill:#000000;stroke-width:0.896347;stroke-linecap:round;stroke-linejoin:round;stroke-miterlimit:4;stroke-dasharray:none" />
    <circle
       inkscape:export-ydpi="38.220001"
       inkscape:export-xdpi="38.220001"
       inkscape:export-filename="/home/sireliah/Aktywatory/dragit/logo_ah.png"
       r="2.6710291"
       cy="82.417953"
       cx="98.22216"
       id="path1174"
       style="fill:#000000;stroke-width:0.911159;stroke-linecap:round;stroke-linejoin:round;stroke-miterlimit:4;stroke-dasharray:none;paint-order:stroke fill markers" />
    <circle
       inkscape:export-ydpi="38.220001"
       inkscape:export-xdpi="38.220001"
       inkscape:export-filename="/home/sireliah/Aktywatory/dragit/logo_ah.png"
       r="2.6797919"
       cy="52.843876"
       cx="72.438591"
       id="path1176"
       style="fill:#000000;stroke-width:0.911159;stroke-linecap:round;stroke-linejoin:round;stroke-miterlimit:4;stroke-dasharray:none;paint-order:stroke fill markers" />
    <path
       inkscape:export-ydpi="38.220001"
       inkscape:export-xdpi="38.220001"
       inkscape:export-filename="/home/sireliah/Aktywatory/dragit/logo_ah.png"
       id="path1178"
       d="m 110.27502,116.7265 2.03651,8.32311"
       style="fill:none;stroke:#000000;stroke-width:2.73346;stroke-linecap:butt;stroke-linejoin:miter;stroke-miterlimit:4;stroke-dasharray:none;stroke-opacity:1" />
    <path
       inkscape:export-ydpi="38.220001"
       inkscape:export-xdpi="38.220001"
       inkscape:export-filename="/home/sireliah/Aktywatory/dragit/logo_ah.png"
       sodipodi:nodetypes="sssssssss"
       d="m 113.79163,101.9074 9.38123,0.0545 c 0.13638,7.8e-4 0.24606,0.10967 0.24606,0.24607 v 2.44996 c 0,0.13639 -0.11037,0.25853 -0.24606,0.24609 l -8.99431,-0.82491 c -0.13568,-0.0126 -1.96641,0.28643 -1.93409,0.154 l 0.2915,-1.19431 c 0.0324,-0.13245 1.11935,-1.13222 1.25567,-1.13142 z"
       style="fill:#000000;stroke-width:2.73346;stroke-linecap:round;stroke-linejoin:round;stroke-miterlimit:4;stroke-dasharray:none;paint-order:stroke fill markers"
       id="rect1180" />
    <rect
       inkscape:export-ydpi="38.220001"
       inkscape:export-xdpi="38.220001"
       inkscape:export-filename="/home/sireliah/Aktywatory/dragit/logo_ah.png"
       ry="0.31374893"
       y="134.10622"
       x="99.975929"
       height="0.73803246"
       width="55.346443"
       id="rect1185"
       style="fill:#ffffff;stroke-width:3.37506;stroke-linecap:round;stroke-linejoin:round;stroke-miterlimit:4;stroke-dasharray:none;paint-order:stroke fill markers" />
    <rect
       inkscape:export-ydpi="38.220001"
       inkscape:export-xdpi="38.220001"
       inkscape:export-filename="/home/sireliah/Aktywatory/dragit/logo_ah.png"
       ry="0.088343307"
       y="145.42531"
       x="67.508408"
       height="7.6176682"
       width="107.52447"
       id="rect3268"
       style="fill:#000000;stroke:none;stroke-width:1.33911;stroke-linecap:round;stroke-linejoin:round;stroke-miterlimit:4;stroke-dasharray:none;stroke-opacity:1;paint-order:stroke fill markers" />
    <text
       id="text913"
       y="168.37952"
       x="48.260094"
       style="font-style:normal;font-weight:normal;font-size:10.5833px;line-height:1.25;font-family:sans-serif;fill:#000000;fill-opacity:1;stroke:none;stroke-width:0.264583"
       xml:space="preserve"
       inkscape:export-xdpi="38.220001"
       inkscape:export-ydpi="38.220001"><tspan
         style="stroke-width:0.264583"
         y="168.37952"
         x="48.260094"
         id="tspan911"
         sodipodi:role="line" /></text>
    <text
       id="text917"
       style="font-style:normal;font-weight:normal;font-size:22.5778px;line-height:1.25;font-family:sans-serif;fill:#000000;fill-opacity:1;stroke:none;stroke-width:0.264583"
       xml:space="preserve"
       inkscape:export-xdpi="38.220001"
       inkscape:export-ydpi="38.220001"><textPath
         style="font-style:normal;font-variant:normal;font-weight:bold;font-stretch:normal;font-size:22.5778px;font-family:'PROGRESS PERSONAL USE';-inkscape-font-specification:'PROGRESS PERSONAL USE Bold';stroke-width:0.264583"
         id="textPath933"
         xlink:href="#path3388"
         dy="-1.38">Drag<tspan
   style="font-style:normal;font-variant:normal;font-weight:normal;font-stretch:normal;font-family:'PROGRESS PERSONAL USE';-inkscape-font-specification:'PROGRESS PERSONAL USE'"
   id="tspan1049">it</tspan></textPath></text>
  </g>
</svg>
