<?xml version="1.0" encoding="UTF-8" standalone="no"?>
<svg
   inkscape:export-ydpi="245.75999"
   inkscape:export-xdpi="245.75999"
   inkscape:export-filename="/home/sireliah/Aktywatory/dragit/logo_transparent.png"
   sodipodi:docname="logo_icon_t.svg"
   inkscape:version="1.1.2 (0a00cf5339, 2022-02-04)"
   id="svg8"
   version="1.1"
   viewBox="0 0 26.458333 26.458333"
   height="100"
   width="100"
   xmlns:inkscape="http://www.inkscape.org/namespaces/inkscape"
   xmlns:sodipodi="http://sodipodi.sourceforge.net/DTD/sodipodi-0.dtd"
   xmlns:xlink="http://www.w3.org/1999/xlink"
   xmlns="http://www.w3.org/2000/svg"
   xmlns:svg="http://www.w3.org/2000/svg"
   xmlns:rdf="http://www.w3.org/1999/02/22-rdf-syntax-ns#"
   xmlns:cc="http://creativecommons.org/ns#"
   xmlns:dc="http://purl.org/dc/elements/1.1/">
  <defs
     id="defs2">
    <linearGradient
       id="linearGradient17131"
       inkscape:swatch="solid">
      <stop
         style="stop-color:#77767b;stop-opacity:1;"
         offset="0"
         id="stop17129" />
    </linearGradient>
    <linearGradient
       id="linearGradient16223"
       inkscape:swatch="solid">
      <stop
         style="stop-color:#deddda;stop-opacity:1;"
         offset="0"
         id="stop16221" />
    </linearGradient>
    <linearGradient
       id="linearGradient16163"
       inkscape:swatch="solid">
      <stop
         style="stop-color:#3d3846;stop-opacity:1;"
         offset="0"
         id="stop16161" />
    </linearGradient>
    <linearGradient
       id="linearGradient16121"
       inkscape:swatch="solid">
      <stop
         style="stop-color:#a51d2d;stop-opacity:1;"
         offset="0"
         id="stop16119" />
    </linearGradient>
    <linearGradient
       id="linearGradient15941"
       inkscape:swatch="solid">
      <stop
         style="stop-color:#2ec27e;stop-opacity:1;"
         offset="0"
         id="stop15939" />
    </linearGradient>
    <linearGradient
       id="linearGradient15757"
       inkscape:swatch="solid">
      <stop
         style="stop-color:#000000;stop-opacity:1;"
         offset="0"
         id="stop15755" />
    </linearGradient>
    <linearGradient
       id="linearGradient15533"
       inkscape:swatch="solid">
      <stop
         style="stop-color:#f6f5f4;stop-opacity:1;"
         offset="0"
         id="stop15531" />
    </linearGradient>
    <linearGradient
       id="linearGradient15495"
       inkscape:swatch="solid">
      <stop
         style="stop-color:#26a269;stop-opacity:1;"
         offset="0"
         id="stop15493" />
    </linearGradient>
    <marker
       style="overflow:visible"
       id="Arrow1Lstart"
       refX="0.0"
       refY="0.0"
       orient="auto"
       inkscape:stockid="Arrow1Lstart"
       inkscape:isstock="true">
      <path
         transform="scale(0.8) translate(12.5,0)"
         style="fill-rule:evenodd;fill:context-stroke;stroke:context-stroke;stroke-width:1.0pt"
         d="M 0.0,0.0 L 5.0,-5.0 L -12.5,0.0 L 5.0,5.0 L 0.0,0.0 z "
         id="path15205" />
    </marker>
    <linearGradient
       id="linearGradient15201"
       inkscape:swatch="solid">
      <stop
         style="stop-color:#3d3846;stop-opacity:1;"
         offset="0"
         id="stop15199" />
    </linearGradient>
    <inkscape:path-effect
       effect="skeletal"
       id="path-effect5994"
       is_visible="true"
       lpeversion="1"
       pattern="M 0,4.9921383 C 0,2.236478 2.236478,0 4.9921383,0 c 2.7556603,0 4.9921383,2.236478 4.9921383,4.9921383 0,2.7556603 -2.236478,4.9921383 -4.9921383,4.9921383 C 2.236478,9.9842766 0,7.7477986 0,4.9921383 Z"
       copytype="single_stretched"
       prop_scale="1"
       scale_y_rel="false"
       spacing="0"
       normal_offset="0"
       tang_offset="0"
       prop_units="false"
       vertical_pattern="false"
       hide_knot="false"
       fuse_tolerance="0" />
    <inkscape:path-effect
       effect="skeletal"
       id="path-effect5990"
       is_visible="true"
       lpeversion="1"
       pattern="M 0,4.9921383 C 0,2.236478 2.236478,0 4.9921383,0 c 2.7556603,0 4.9921383,2.236478 4.9921383,4.9921383 0,2.7556603 -2.236478,4.9921383 -4.9921383,4.9921383 C 2.236478,9.9842766 0,7.7477986 0,4.9921383 Z"
       copytype="single_stretched"
       prop_scale="1"
       scale_y_rel="false"
       spacing="0"
       normal_offset="0"
       tang_offset="0"
       prop_units="false"
       vertical_pattern="false"
       hide_knot="false"
       fuse_tolerance="0" />
    <inkscape:path-effect
       effect="powerstroke"
       id="path-effect4147"
       is_visible="true"
       lpeversion="1"
       offset_points="2.2352461,0.46508788"
       not_jump="true"
       sort_points="true"
       interpolator_type="CentripetalCatmullRom"
       interpolator_beta="0.75"
       start_linecap_type="round"
       linejoin_type="spiro"
       miter_limit="4"
       scale_width="1"
       end_linecap_type="round" />
    <inkscape:path-effect
       effect="simplify"
       id="path-effect4145"
       is_visible="true"
       lpeversion="1"
       steps="1"
       threshold="0.0032025118"
       smooth_angles="0"
       helper_size="0"
       simplify_individual_paths="false"
       simplify_just_coalesce="false"
       step="1" />
    <inkscape:path-effect
       effect="powerstroke"
       id="path-effect4138"
       is_visible="true"
       lpeversion="1"
       offset_points="1.4093575,0.46508788"
       not_jump="true"
       sort_points="true"
       interpolator_type="CentripetalCatmullRom"
       interpolator_beta="0.75"
       start_linecap_type="round"
       linejoin_type="spiro"
       miter_limit="4"
       scale_width="1"
       end_linecap_type="round" />
    <inkscape:path-effect
       effect="simplify"
       id="path-effect4136"
       is_visible="true"
       lpeversion="1"
       steps="1"
       threshold="0.0032025118"
       smooth_angles="0"
       helper_size="0"
       simplify_individual_paths="false"
       simplify_just_coalesce="false"
       step="1" />
    <inkscape:path-effect
       effect="powerstroke"
       id="path-effect4131"
       is_visible="true"
       lpeversion="1"
       offset_points="2.9316105,0.46508788"
       not_jump="true"
       sort_points="true"
       interpolator_type="CentripetalCatmullRom"
       interpolator_beta="0.75"
       start_linecap_type="round"
       linejoin_type="spiro"
       miter_limit="4"
       scale_width="1"
       end_linecap_type="round" />
    <inkscape:path-effect
       effect="simplify"
       id="path-effect4129"
       is_visible="true"
       lpeversion="1"
       steps="1"
       threshold="0.0032025118"
       smooth_angles="0"
       helper_size="0"
       simplify_individual_paths="false"
       simplify_just_coalesce="false"
       step="1" />
    <inkscape:path-effect
       effect="powerstroke"
       id="path-effect4124"
       is_visible="true"
       lpeversion="1"
       offset_points="2.4317113,0.46508788"
       not_jump="true"
       sort_points="true"
       interpolator_type="CentripetalCatmullRom"
       interpolator_beta="0.75"
       start_linecap_type="round"
       linejoin_type="spiro"
       miter_limit="4"
       scale_width="1"
       end_linecap_type="round" />
    <inkscape:path-effect
       effect="simplify"
       id="path-effect4122"
       is_visible="true"
       lpeversion="1"
       steps="1"
       threshold="0.0032025118"
       smooth_angles="0"
       helper_size="0"
       simplify_individual_paths="false"
       simplify_just_coalesce="false"
       step="1" />
    <inkscape:path-effect
       effect="simplify"
       id="path-effect3798"
       is_visible="true"
       lpeversion="1"
       steps="1"
       threshold="0.000408163"
       smooth_angles="360"
       helper_size="0"
       simplify_individual_paths="false"
       simplify_just_coalesce="false" />
    <inkscape:path-effect
       effect="powerstroke"
       id="path-effect802"
       is_visible="true"
       lpeversion="1"
       offset_points="6,4.99214"
       not_jump="false"
       sort_points="true"
       interpolator_type="CubicBezierJohan"
       interpolator_beta="0.2"
       start_linecap_type="zerowidth"
       linejoin_type="extrp_arc"
       miter_limit="4"
       scale_width="1"
       end_linecap_type="zerowidth" />
    <inkscape:path-effect
       effect="skeletal"
       id="path-effect798"
       is_visible="true"
       lpeversion="1"
       pattern="M 0,4.9921383 C 0,2.236478 2.236478,0 4.9921383,0 c 2.7556603,0 4.9921383,2.236478 4.9921383,4.9921383 0,2.7556603 -2.236478,4.9921383 -4.9921383,4.9921383 C 2.236478,9.9842766 0,7.7477986 0,4.9921383 Z"
       copytype="single_stretched"
       prop_scale="1"
       scale_y_rel="false"
       spacing="0"
       normal_offset="0"
       tang_offset="0"
       prop_units="false"
       vertical_pattern="false"
       hide_knot="false"
       fuse_tolerance="0" />
    <inkscape:path-effect
       effect="powerstroke"
       id="path-effect794"
       is_visible="true"
       lpeversion="1"
       offset_points="0,4.99214"
       not_jump="false"
       sort_points="true"
       interpolator_type="CubicBezierJohan"
       interpolator_beta="0.2"
       start_linecap_type="zerowidth"
       linejoin_type="extrp_arc"
       miter_limit="4"
       scale_width="1"
       end_linecap_type="zerowidth" />
    <linearGradient
       id="linearGradient903"
       inkscape:swatch="gradient">
      <stop
         id="stop899"
         offset="0"
         style="stop-color:#000000;stop-opacity:1;" />
      <stop
         id="stop901"
         offset="1"
         style="stop-color:#000000;stop-opacity:0;" />
    </linearGradient>
    <linearGradient
       id="linearGradient3507"
       inkscape:swatch="solid">
      <stop
         id="stop3505"
         offset="0"
         style="stop-color:#000000;stop-opacity:1;" />
    </linearGradient>
    <linearGradient
       id="linearGradient3501"
       inkscape:swatch="solid">
      <stop
         id="stop3499"
         offset="0"
         style="stop-color:#000000;stop-opacity:1;" />
    </linearGradient>
    <linearGradient
       id="linearGradient3495"
       inkscape:swatch="solid">
      <stop
         id="stop3493"
         offset="0"
         style="stop-color:#000000;stop-opacity:1;" />
    </linearGradient>
    <linearGradient
       id="linearGradient3489"
       inkscape:swatch="solid">
      <stop
         id="stop3487"
         offset="0"
         style="stop-color:#000000;stop-opacity:1;" />
    </linearGradient>
    <linearGradient
       id="linearGradient3483"
       inkscape:swatch="solid">
      <stop
         id="stop3481"
         offset="0"
         style="stop-color:#000000;stop-opacity:1;" />
    </linearGradient>
    <linearGradient
       id="linearGradient3477"
       inkscape:swatch="solid">
      <stop
         id="stop3475"
         offset="0"
         style="stop-color:#000000;stop-opacity:1;" />
    </linearGradient>
    <linearGradient
       id="linearGradient3471"
       inkscape:swatch="solid">
      <stop
         id="stop3469"
         offset="0"
         style="stop-color:#000000;stop-opacity:1;" />
    </linearGradient>
    <linearGradient
       id="linearGradient3465"
       inkscape:swatch="solid">
      <stop
         id="stop3463"
         offset="0"
         style="stop-color:#000000;stop-opacity:1;" />
    </linearGradient>
    <linearGradient
       id="linearGradient3152"
       inkscape:swatch="solid">
      <stop
         id="stop3150"
         offset="0"
         style="stop-color:#000000;stop-opacity:1;" />
    </linearGradient>
    <linearGradient
       inkscape:collect="always"
       xlink:href="#linearGradient15495"
       id="linearGradient15535"
       x1="14.008473"
       y1="14.928176"
       x2="16.537447"
       y2="14.928176"
       gradientUnits="userSpaceOnUse"
       gradientTransform="matrix(0.95831117,0,0,0.95831117,0.46205193,0.42315279)" />
    <linearGradient
       inkscape:collect="always"
       xlink:href="#linearGradient15495"
       id="linearGradient15759"
       x1="62.46875"
       y1="56.0625"
       x2="89.861328"
       y2="56.0625"
       gradientUnits="userSpaceOnUse"
       gradientTransform="matrix(0.25355316,0,0,0.25355316,0.46205193,0.42315279)" />
    <linearGradient
       inkscape:collect="always"
       xlink:href="#linearGradient15941"
       id="linearGradient15943"
       x1="43.273437"
       y1="67.117104"
       x2="79.285155"
       y2="67.117104"
       gradientUnits="userSpaceOnUse"
       gradientTransform="matrix(0.25355316,0,0,0.25355316,0.46205193,0.42315279)" />
    <linearGradient
       inkscape:collect="always"
       xlink:href="#linearGradient16121"
       id="linearGradient16123"
       x1="3.1157026"
       y1="15.943808"
       x2="7.2263517"
       y2="15.943808"
       gradientUnits="userSpaceOnUse"
       gradientTransform="matrix(0.95831117,0,0,0.95831117,0.46205193,0.42315279)" />
    <linearGradient
       inkscape:collect="always"
       xlink:href="#linearGradient16223"
       id="linearGradient16225"
       x1="5.0245237"
       y1="11.070552"
       x2="14.184604"
       y2="11.070552"
       gradientUnits="userSpaceOnUse"
       gradientTransform="matrix(0.95831117,0,0,0.95831117,0.46205193,0.42315279)" />
  </defs>
  <sodipodi:namedview
     width="296mm"
     units="px"
     inkscape:window-maximized="1"
     inkscape:window-y="32"
     inkscape:window-x="0"
     inkscape:window-height="1011"
     inkscape:window-width="1920"
     inkscape:snap-nodes="false"
     showgrid="false"
     inkscape:document-rotation="0"
     inkscape:current-layer="layer1"
     inkscape:document-units="mm"
     inkscape:cy="45.618551"
     inkscape:cx="51.592408"
     inkscape:zoom="6.4447466"
     inkscape:pageshadow="2"
     inkscape:pageopacity="0"
     borderopacity="1.0"
     bordercolor="#666666"
     pagecolor="#ffffff"
     id="base"
     inkscape:pagecheckerboard="false" />
  <metadata
     id="metadata5">
    <rdf:RDF>
      <cc:Work
         rdf:about="">
        <dc:format>image/svg+xml</dc:format>
        <dc:type
           rdf:resource="http://purl.org/dc/dcmitype/StillImage" />
      </cc:Work>
    </rdf:RDF>
  </metadata>
  <g
     id="layer1"
     inkscape:groupmode="layer"
     inkscape:label="Layer 1">
    <path
       id="path3386-6"
       style="fill:#c64600;fill-opacity:1;stroke:none;stroke-width:0.098918;stroke-miterlimit:4;stroke-dasharray:none;stroke-opacity:1;paint-order:fill markers stroke"
       d="M 11.971147,0.4531 C 11.778901,0.91766957 11.677496,1.4134077 11.634239,1.9130272 11.226895,1.9030872 10.698164,2.2217533 10.372938,2.0680452 10.092238,1.5509556 9.7050433,1.1032412 9.2946113,0.68519099 8.5932043,0.97558467 7.8926433,1.2680171 7.1908183,1.557404 c -0.02737,0.6234853 0.0303,1.2511211 0.228348,1.8454976 -0.394454,0.106216 -0.790221,0.7742625 -1.159992,0.587724 C 5.8138773,3.6313496 5.3066003,3.358134 4.7688373,3.1651955 4.2333016,3.6977705 3.6991846,4.231786 3.1666606,4.767372 c 0.196909,0.5905077 0.542764,1.1603115 0.919005,1.6190218 -0.356173,0.240374 -0.435615,1.1508371 -0.926492,0.965798 C 2.6394626,7.1961513 2.0957336,7.1772433 1.5569976,7.1930971 1.2666326,7.8944096 0.97417593,8.5948588 0.68104093,9.2950179 1.1223436,9.7295004 1.6012436,10.129238 2.1484546,10.423654 c -0.101448,0.377168 -0.153718,0.850217 -0.260166,1.214734 -0.614026,0.03851 -1.20308867,0.224231 -1.76875767,0.456696 0,0.776755 0,1.553511 0,2.330268 0.572282,0.237048 1.17001367,0.419716 1.79121767,0.460439 -0.01,0.411385 0.312155,0.946281 0.155232,1.261663 -0.518908,0.279271 -0.963161,0.669407 -1.38493967,1.076091 0.291929,0.701911 0.58520467,1.403265 0.87595667,2.105665 0.622171,0.027 1.24884,-0.02972 1.841754,-0.228348 0.105516,0.399685 0.782649,0.815194 0.587806,1.163798 -0.357907,0.444203 -0.62858,0.95083 -0.821769,1.486531 0.534819,0.537822 1.07198,1.071006 1.6059197,1.609664 0.586653,-0.218404 1.137135,-0.527292 1.61715,-0.930236 0.263286,0.350369 1.154718,0.444571 0.95644,0.94521 -0.149509,0.516507 -0.169193,1.055096 -0.15348,1.589074 0.685771,0.229011 1.372755,0.680348 2.070888,0.743811 0.588638,-0.2185 0.8373437,-0.942563 1.2027197,-1.329654 0.331037,0.196232 1.023634,0.0206 1.193006,0.33862 0.04959,0.584163 0.200498,1.160318 0.469065,1.682818 0.755543,0 1.511087,0 2.26663,0 0.288159,-0.555711 0.433496,-1.173468 0.481028,-1.794962 0.413681,0.07381 1.060544,-0.441866 1.319527,-0.06884 0.273864,0.485343 0.645634,0.903762 1.03133,1.302289 0.700575,-0.293634 1.401837,-0.585637 2.103793,-0.875956 0.02231,-0.622484 -0.02047,-1.253689 -0.228347,-1.845497 0.393831,-0.106284 0.788388,-0.765225 1.15786,-0.589258 0.443943,0.363788 0.956144,0.631198 1.492469,0.830707 0.533378,-0.538019 1.069968,-1.070527 1.604048,-1.607792 -0.206694,-0.591524 -0.527484,-1.134389 -0.92275,-1.619022 0.357428,-0.23882 0.43884,-1.146802 0.928365,-0.962054 0.519531,0.155845 1.063771,0.174564 1.602176,0.159094 0.289163,-0.698594 0.581238,-1.395513 0.874085,-2.092562 -0.422143,-0.456941 -0.914269,-0.845952 -1.467414,-1.13238 0.107393,-0.394043 0.156422,-0.847897 0.258295,-1.220348 0.614275,-0.04168 1.204951,-0.223514 1.770629,-0.458567 0,-0.776757 0,-1.553513 0,-2.330268 -0.571183,-0.237606 -1.168568,-0.420995 -1.789346,-0.458568 0.0091,-0.407896 -0.311312,-0.937005 -0.15689,-1.263173 0.520029,-0.27869 0.965941,-0.6693747 1.386598,-1.0783252 C 25.544949,8.5944429 25.252946,7.8931805 24.962626,7.1912254 24.340569,7.1660646 23.711522,7.2187545 23.119,7.419573 23.028834,6.9865268 22.212765,6.5715323 22.595846,6.1709235 22.930089,5.7522562 23.173494,5.2705387 23.352963,4.767372 22.821018,4.2324547 22.287616,3.6989719 21.752658,3.1670672 21.157477,3.3700712 20.613414,3.6949784 20.12802,4.0916878 19.86428,3.7439492 18.983248,3.6438785 19.175325,3.1464785 19.324245,2.6298287 19.344913,2.0914506 19.328805,1.557404 18.628043,1.2678361 17.928987,0.97416427 17.228755,0.6833193 16.793565,1.1233816 16.382175,1.5976703 16.100119,2.152605 15.707243,2.0442062 15.246369,1.9988988 14.881642,1.8905668 14.843049,1.2765952 14.656885,0.68766378 14.424946,0.12180885 c -0.776755,-10e-9 -1.553511,0 -2.330268,0 -0.04118,0.11043038 -0.08236,0.22086077 -0.123531,0.33129115 z m 1.914749,4.6362046 c 3.352099,0.1959771 6.391743,2.7301311 7.269689,5.9314224 1.004779,3.2145 -0.21776,6.983285 -2.941627,9.008621 -2.593224,2.05096 -6.426664,2.280925 -9.2614687,0.588286 -2.669026,-1.519313 -4.3300327,-4.603194 -4.127889,-7.669391 0.1364,-3.3398807 2.504841,-6.4231999 5.6825027,-7.4508037 1.085032,-0.3544245 2.239516,-0.4877221 3.378793,-0.4081347 z" />
    <path
       id="path945-6-7"
       style="fill:#c64600;fill-opacity:1;stroke-width:0.512722;stroke-linecap:round;stroke-linejoin:bevel;paint-order:fill markers stroke"
       d="m 13.106966,6.0137743 a 7.3590935,7.3590935 0 0 0 -7.3145077,7.3589287 7.3590935,7.3590935 0 0 0 7.3589307,7.359312 7.3590935,7.3590935 0 0 0 7.359312,-7.359312 7.3590935,7.3590935 0 0 0 -7.359312,-7.3589287 7.3590935,7.3590935 0 0 0 -0.04442,0 z m 0.03447,0.8134038 A 6.5475614,6.5475614 0 0 1 19.688873,13.374618 6.5475614,6.5475614 0 0 1 13.141436,19.92244 6.5475614,6.5475614 0 0 1 6.5939933,13.374618 6.5475614,6.5475614 0 0 1 13.141436,6.8271781 Z" />
    <path
       d="m 13.10189,5.1679428 a 8.204624,8.204624 0 0 0 -8.1549137,8.2044412 8.204624,8.204624 0 0 0 8.2044407,8.204864 8.204624,8.204624 0 0 0 8.204867,-8.204864 8.204624,8.204624 0 0 0 -8.204867,-8.2044412 8.204624,8.204624 0 0 0 -0.04953,0 z m 0.03842,0.9068605 A 7.2998499,7.2998499 0 0 1 20.440023,13.374518 7.2998499,7.2998499 0 0 1 13.14031,20.674657 7.2998499,7.2998499 0 0 1 5.8405933,13.374518 7.2998499,7.2998499 0 0 1 13.14031,6.0748033 Z"
       style="fill:#e66100;fill-opacity:1;stroke-width:0.571631;stroke-linecap:round;stroke-linejoin:bevel;paint-order:fill markers stroke"
       id="path945-6" />
    <path
       id="path945"
       style="fill:#ff7800;fill-opacity:1;stroke-width:0.633364;stroke-linecap:round;stroke-linejoin:bevel;paint-order:fill markers stroke"
       d="m 13.10317,4.280751 a 9.0906649,9.0906649 0 0 0 -9.0355864,9.090461 9.0906649,9.0906649 0 0 0 9.0904624,9.090934 9.0906649,9.0906649 0 0 0 9.090934,-9.090934 9.0906649,9.0906649 0 0 0 -9.090934,-9.090461 9.0906649,9.0906649 0 0 0 -0.05488,0 z m 0.04258,1.0047951 a 8.0881816,8.0881816 0 0 1 8.088026,8.0880309 8.0881816,8.0881816 0 0 1 -8.08803,8.088504 8.0881816,8.0881816 0 0 1 -8.0880327,-8.088504 8.0881816,8.0881816 0 0 1 8.0880327,-8.0880309 z" />
    <path
       d="m 12.466211,0.59598491 -0.08419,0.22631602 C 12.272284,1.1167922 12.200617,1.4684648 12.159669,1.9177299 c -0.01817,0.1993134 -0.04465,0.3740021 -0.05893,0.3882532 -0.01427,0.014251 -0.21565,0.053257 -0.44768,0.086663 -0.232027,0.03337 -0.664138,0.1185065 -0.960233,0.1896697 -0.402699,0.096797 -0.542813,0.116149 -0.556134,0.076264 C 10.043444,2.3788401 9.6378643,1.7430907 9.3681063,1.4537077 L 9.1828943,1.2546289 8.4499663,1.559685 7.7175343,1.864246 v 0.2515722 c 0,0.297684 0.09532,0.7857725 0.232754,1.191997 l 0.09855,0.2916853 -0.219382,0.1218241 c -0.219086,0.121626 -1.110195,0.7205215 -1.323727,0.8894171 L 6.3928183,4.6993862 6.0471543,4.4205769 C 5.6984033,4.1390134 5.3158953,3.8960631 5.0512653,3.7881795 l -0.143614,-0.058436 -0.5635617,0.5635614 -0.563562,0.5630662 0.05893,0.1441092 c 0.10757,0.2638698 0.35045,0.6468773 0.629426,0.9924231 0.161858,0.2004794 0.263415,0.3630371 0.24563,0.3932054 -0.01669,0.028308 -0.09241,0.1294907 -0.168375,0.2243353 -0.175437,0.219043 -0.613503,0.8806296 -0.77403,1.1692167 L 3.6487986,8.0010249 3.3486956,7.8990092 C 2.9372406,7.7590421 2.4673266,7.6667505 2.1666026,7.6667505 h -0.251572 l -0.304561,0.7324319 -0.304561,0.7329271 0.198583,0.1852128 c 0.289381,0.2697552 0.925129,0.6753297 1.204873,0.7685827 0.03993,0.01331 0.02098,0.153428 -0.07577,0.556133 -0.07114,0.296103 -0.15679,0.728208 -0.190165,0.960234 -0.03337,0.232026 -0.07239,0.43343 -0.08666,0.44768 -0.01427,0.01425 -0.188946,0.04079 -0.388253,0.05893 -0.449271,0.04095 -0.800932,0.112115 -1.09542867,0.22186 l -0.226316,0.08419 v 0.813152 0.813154 l 0.226316,0.08419 c 0.29449667,0.109734 0.64615767,0.180863 1.09542867,0.221859 0.199307,0.01814 0.373979,0.04468 0.388253,0.05893 0.01428,0.01428 0.05329,0.215643 0.08666,0.447679 0.03337,0.232027 0.119025,0.664141 0.190165,0.960234 0.09675,0.402698 0.115699,0.542812 0.07577,0.556132 -0.279744,0.09325 -0.915492,0.49882 -1.204873,0.768583 l -0.198583,0.185214 0.304561,0.732926 0.304561,0.732432 h 0.251572 c 0.297685,0 0.785769,-0.09531 1.191997,-0.232753 l 0.29218,-0.09855 0.121825,0.219384 c 0.159818,0.287338 0.598442,0.949618 0.773535,1.168226 0.07597,0.09485 0.151686,0.195522 0.168375,0.22384 0.01779,0.03018 -0.08377,0.193221 -0.24563,0.393701 -0.278976,0.345545 -0.521856,0.728559 -0.629426,0.992423 l -0.05893,0.143613 0.563562,0.563562 0.5635617,0.563562 0.143614,-0.05843 c 0.26463,-0.107884 0.647137,-0.350834 0.995889,-0.632397 l 0.345664,-0.279305 0.112911,0.08914 c 0.214133,0.169377 1.104987,0.767639 1.325211,0.889913 l 0.220869,0.122814 -0.102016,0.300104 c -0.140078,0.411835 -0.232258,0.881505 -0.232258,1.183066 v 0.252563 l 0.700737,0.288219 c 0.385324,0.158641 0.722151,0.288302 0.748775,0.288218 0.128051,-4.35e-4 0.669198,-0.726674 0.8844657,-1.187044 0.05511,-0.117859 0.102831,-0.219433 0.106473,-0.226812 0.0035,-0.0071 0.198311,0.03546 0.432327,0.09458 0.363344,0.09176 0.681127,0.151078 1.421285,0.265438 l 0.134205,0.0208 0.02377,0.397662 c 0.02284,0.379628 0.149974,0.98666 0.255039,1.217253 l 0.04902,0.107959 h 0.80523 0.805724 l 0.04902,-0.107959 c 0.105064,-0.230592 0.232193,-0.837624 0.255039,-1.217253 l 0.02377,-0.398157 0.134204,-0.02031 c 0.740974,-0.114491 1.058446,-0.17416 1.425742,-0.266924 0.331028,-0.08356 0.434573,-0.09577 0.44867,-0.05348 0.09373,0.281194 0.498622,0.916226 0.769078,1.206358 l 0.185213,0.198584 0.732432,-0.304561 0.732927,-0.30456 v -0.246119 c 0,-0.313471 -0.09494,-0.808973 -0.227802,-1.191007 l -0.103495,-0.298609 0.219383,-0.121823 c 0.219013,-0.121589 1.110229,-0.720046 1.323725,-0.888923 l 0.112911,-0.08914 0.345169,0.279305 c 0.348752,0.281564 0.73126,0.524513 0.995889,0.632398 l 0.14411,0.05843 0.563561,-0.563561 0.563562,-0.563563 -0.05894,-0.143613 c -0.10757,-0.263869 -0.350451,-0.646877 -0.629426,-0.992423 -0.16186,-0.200479 -0.263416,-0.363533 -0.24563,-0.393701 0.01669,-0.02832 0.09241,-0.128987 0.168376,-0.22384 0.175437,-0.219043 0.613502,-0.881125 0.77403,-1.169712 l 0.12331,-0.220868 0.299608,0.102015 c 0.411526,0.13997 0.881715,0.232258 1.182589,0.232258 h 0.251572 l 0.306046,-0.732926 0.305552,-0.732432 -0.156986,-0.15649 c -0.24595,-0.245019 -0.801014,-0.597123 -1.28906,-0.81761 -0.0063,-0.0029 0.04625,-0.24579 0.116872,-0.539791 0.07063,-0.29401 0.155797,-0.724245 0.189175,-0.956272 0.03337,-0.232036 0.07238,-0.43343 0.08666,-0.447679 0.01427,-0.01425 0.188944,-0.04079 0.388253,-0.05893 0.44927,-0.04095 0.800931,-0.112123 1.095429,-0.221859 l 0.226315,-0.08468 V 13.22808 12.414928 l -0.226315,-0.08419 c -0.294498,-0.109745 -0.646159,-0.180863 -1.095429,-0.22186 -0.199309,-0.01813 -0.373974,-0.04468 -0.388253,-0.05893 -0.01429,-0.01428 -0.0533,-0.215653 -0.08666,-0.447679 -0.03337,-0.232028 -0.11902,-0.664134 -0.190165,-0.960235 -0.09675,-0.402698 -0.115702,-0.542803 -0.07577,-0.556133 0.280106,-0.09337 0.915256,-0.4991238 1.205368,-0.7695729 L 25.253808,9.130624 24.948752,8.3986872 24.643201,7.6662553 h -0.251573 c -0.301171,0 -0.810134,0.099237 -1.200416,0.2337443 L 22.907451,7.9980534 22.785626,7.7781752 C 22.625852,7.4909114 22.187163,6.8290336 22.012091,6.6104443 21.936122,6.5155997 21.8604,6.4144261 21.843716,6.386109 21.825936,6.355922 21.927486,6.193383 22.089346,5.9929036 22.368321,5.6473578 22.611202,5.2643503 22.718772,5.0004805 L 22.777712,4.8563713 22.21415,4.2933051 21.650589,3.7297437 21.506479,3.7881797 C 21.241841,3.8960631 20.859333,4.1390134 20.510581,4.4205769 L 20.165412,4.6993862 20.052501,4.6107417 C 19.838367,4.4413649 18.947515,3.8430941 18.72729,3.7208295 L 18.506422,3.5980146 18.608437,3.2979109 C 18.748407,2.8863838 18.840696,2.4161904 18.840696,2.115323 V 1.8637507 L 18.108759,1.5586946 17.376822,1.2531432 17.182696,1.4606409 c -0.226497,0.2421319 -0.552442,0.7332809 -0.678948,1.0231266 -0.04877,0.111724 -0.09278,0.2084477 -0.09806,0.2149259 -0.0052,0.00635 -0.250239,-0.046264 -0.544248,-0.1168722 -0.294004,-0.070627 -0.724239,-0.1557677 -0.956266,-0.1891745 -0.232028,-0.033315 -0.433401,-0.072412 -0.447679,-0.086664 -0.01428,-0.01427 -0.04126,-0.1889398 -0.05943,-0.3882532 -0.04095,-0.4492651 -0.112119,-0.8009377 -0.221859,-1.09542897 l -0.08419,-0.22631602 h -0.813153 z m 0.656168,3.92016949 a 8.8631472,8.8631472 0 0 1 0.811172,0.032685 8.8631472,8.8631472 0 0 1 0.509582,0.058931 v -0.010399 l 0.226316,0.029713 c 0.742308,0.098426 1.944129,0.504321 2.705392,0.9136828 1.56077,0.8392765 2.893159,2.1980189 3.681474,3.7542704 0.09379,0.185142 0.188604,0.4069039 0.28079,0.6427974 a 8.8631472,8.8631472 0 0 1 0.662606,4.204922 8.8631472,8.8631472 0 0 1 -9.593917,8.06616 8.8631472,8.8631472 0 0 1 -8.0661614,-9.593918 8.8631472,8.8631472 0 0 1 8.7827464,-8.0988446 z"
       style="fill:#ffa348;fill-opacity:1;stroke:none;stroke-width:0.098918;stroke-miterlimit:4;stroke-dasharray:none;stroke-opacity:1;paint-order:fill markers stroke"
       id="path3386" />
    <path
       id="path934"
       style="fill:#000000;stroke-width:0.173852;stroke-miterlimit:4;stroke-dasharray:none"
       d="m 5.4073293,12.105416 c -0.124453,7e-6 -0.225335,0.125501 -0.225326,0.280295 -9e-6,0.154795 0.100874,0.280289 0.225326,0.280295 0.0489,-1.36e-4 0.09222,-0.02318 0.129252,-0.05645 a 0.03378842,0.11851459 25.860453 0 0 0.02427,-0.01931 0.03378842,0.11851459 25.860453 0 0 0.04754,-0.07329 0.03378842,0.11851459 25.860453 0 0 0.0208,-0.120338 0.03378842,0.11851459 25.860453 0 0 -0.08221,0.09261 0.03378842,0.11851459 25.860453 0 0 -0.01733,0.04061 c -0.01006,0.0034 -0.02003,0.0074 -0.0307,0.008 -0.07956,0.0037 -0.145677,-0.07928 -0.147575,-0.185213 -0.002,-0.105734 0.06073,-0.194403 0.140147,-0.198088 0.01948,-8.88e-4 0.03885,0.0034 0.05695,0.01287 -0.04,-0.04003 -0.0898,-0.06187 -0.141138,-0.0619 z" />
    <path
       inkscape:export-ydpi="38.220001"
       inkscape:export-xdpi="38.220001"
       inkscape:export-filename="/home/sireliah/Aktywatory/dragit/logo_ah.png"
       sodipodi:nodetypes="ccc"
       id="path1007"
       d="m 3.6599926,14.386091 1.7697807,-1.937027 1.889768,2.012078"
       style="fill:none;stroke:#000000;stroke-width:0.253553;stroke-linecap:round;stroke-linejoin:round;stroke-miterlimit:4;stroke-dasharray:none;stroke-opacity:1" />
    <path
       inkscape:export-ydpi="38.220001"
       inkscape:export-xdpi="38.220001"
       inkscape:export-filename="/home/sireliah/Aktywatory/dragit/logo_ah.png"
       id="path864"
       d="m 21.715778,13.350703 1.218324,-1.282397 v 1.199934"
       style="fill:none;stroke:#6c5d53;stroke-width:0.231803;stroke-linecap:butt;stroke-linejoin:round;stroke-miterlimit:4;stroke-dasharray:none;stroke-opacity:1" />
    <path
       id="rect835"
       style="fill:#2ec27e;fill-opacity:1;stroke:url(#linearGradient15759);stroke-width:0.253553;stroke-linecap:round;stroke-linejoin:round;stroke-miterlimit:4;stroke-dasharray:none;stroke-opacity:1"
       d="m 16.301202,13.268195 v 2.739564 h 6.097657 l 0.585351,-0.170852 0.262467,-0.615064 v -1.953648 h -3.661664 l -0.482841,0.770069 -1.427722,-0.770069 z m 5.794086,0.276334 h 0.01485 c 0.01498,0 0.02723,0.01226 0.02723,0.02723 v 0.98648 c 0,0.01498 -0.01226,0.02674 -0.02723,0.02674 h -0.01485 c -0.01498,0 -0.02723,-0.01176 -0.02723,-0.02674 v -0.98648 c 0,-0.01498 0.01226,-0.02723 0.02723,-0.02723 z m 0.09558,0 h 0.01485 c 0.01498,0 0.02723,0.01226 0.02723,0.02723 v 0.98648 c 0,0.01498 -0.01226,0.02674 -0.02723,0.02674 h -0.01485 c -0.01498,0 -0.02723,-0.01176 -0.02723,-0.02674 v -0.98648 c 0,-0.01498 0.01226,-0.02723 0.02723,-0.02723 z m -0.472936,4.95e-4 h 0.01486 c 0.01498,0 0.02723,0.01176 0.02723,0.02674 v 0.98648 c 0,0.01498 -0.01225,0.02674 -0.02723,0.02674 h -0.01486 c -0.01498,0 -0.02723,-0.01176 -0.02723,-0.02674 v -0.98648 c 0,-0.01498 0.01226,-0.02674 0.02723,-0.02674 z m 0.09558,0 h 0.01485 c 0.01498,0 0.02723,0.01176 0.02723,0.02674 v 0.98648 c 0,0.01498 -0.01225,0.02674 -0.02723,0.02674 h -0.01485 c -0.01498,0 -0.02723,-0.01176 -0.02723,-0.02674 v -0.98648 c 0,-0.01498 0.01226,-0.02674 0.02723,-0.02674 z m 0.09458,0.0015 h 0.01485 c 0.01498,0 0.02723,0.01176 0.02723,0.02674 v 0.98648 c 0,0.01498 -0.01226,0.02723 -0.02723,0.02723 h -0.01485 c -0.01498,0 -0.02723,-0.01225 -0.02723,-0.02723 v -0.98648 c 0,-0.01498 0.01225,-0.02674 0.02723,-0.02674 z m 0.09558,0 h 0.01485 c 0.01498,0 0.02723,0.01176 0.02723,0.02674 v 0.98648 c 0,0.01498 -0.01226,0.02723 -0.02723,0.02723 h -0.01485 c -0.01498,0 -0.02723,-0.01225 -0.02723,-0.02723 v -0.98648 c 0,-0.01498 0.01225,-0.02674 0.02723,-0.02674 z" />
    <rect
       inkscape:export-ydpi="38.220001"
       inkscape:export-xdpi="38.220001"
       inkscape:export-filename="/home/sireliah/Aktywatory/dragit/logo_ah.png"
       y="15.639741"
       x="16.440351"
       height="0.94880533"
       width="1.8342171"
       id="rect896"
       style="fill:#26a269;fill-opacity:1;stroke:none;stroke-width:0.0258744;stroke-miterlimit:4;stroke-dasharray:none;stroke-opacity:1" />
    <path
       inkscape:export-ydpi="38.220001"
       inkscape:export-xdpi="38.220001"
       inkscape:export-filename="/home/sireliah/Aktywatory/dragit/logo_ah.png"
       id="path870"
       d="M 9.1093503,7.4648113 22.846767,12.174769"
       style="fill:#000000;stroke:#858585;stroke-width:0.253553;stroke-linecap:butt;stroke-linejoin:miter;stroke-miterlimit:4;stroke-dasharray:none;stroke-opacity:1" />
    <path
       inkscape:export-ydpi="38.220001"
       inkscape:export-xdpi="38.220001"
       inkscape:export-filename="/home/sireliah/Aktywatory/dragit/logo_ah.png"
       id="path919"
       d="M 5.6333123,5.9670022 V 11.0487"
       style="fill:none;stroke:#000000;stroke-width:0.253553;stroke-linecap:butt;stroke-linejoin:miter;stroke-miterlimit:4;stroke-dasharray:none;stroke-opacity:1" />
    <path
       inkscape:export-ydpi="38.220001"
       inkscape:export-xdpi="38.220001"
       inkscape:export-filename="/home/sireliah/Aktywatory/dragit/logo_ah.png"
       id="path917"
       d="M 5.1864523,6.0814857 V 11.13965"
       style="fill:none;stroke:#000000;stroke-width:0.253553;stroke-linecap:butt;stroke-linejoin:miter;stroke-miterlimit:4;stroke-dasharray:none;stroke-opacity:1" />
    <path
       style="fill:none;fill-opacity:1;stroke:#77767b;stroke-width:2.05378;stroke-linecap:round;stroke-linejoin:round;stroke-miterlimit:4;stroke-dasharray:none;stroke-dashoffset:0;stroke-opacity:1;paint-order:markers fill stroke"
       d="m 5.4150783,6.1520822 3.746931,1.2309717 4.7777257,8.5428141"
       id="path7210-5-5" />
    <path
       style="fill:none;fill-opacity:1;stroke:url(#linearGradient16225);stroke-width:1.62274;stroke-linecap:round;stroke-linejoin:round;stroke-miterlimit:4;stroke-dasharray:none;stroke-dashoffset:0;stroke-opacity:1;paint-order:markers fill stroke"
       d="m 5.4038853,6.1452933 3.746931,1.2309715 4.7777247,8.5428132"
       id="path7210" />
    <path
       inkscape:export-ydpi="38.220001"
       inkscape:export-xdpi="38.220001"
       inkscape:export-filename="/home/sireliah/Aktywatory/dragit/logo_ah.png"
       sodipodi:nodetypes="ccccccccc"
       d="m 14.123536,13.082808 0.633946,-0.198231 h 1.539654 v 3.688826 h -1.976129 l -0.346831,-0.09116 -0.07471,-0.448044 v -2.352395 z"
       style="fill:#2ec27e;fill-opacity:1;stroke:url(#linearGradient15535);stroke-width:0.253553;stroke-miterlimit:4;stroke-dasharray:none;stroke-opacity:1"
       id="rect837" />
    <path
       id="rect839"
       style="fill:#26a269;fill-opacity:1;stroke:url(#linearGradient15943);stroke-width:0.253553;stroke-miterlimit:4;stroke-dasharray:none;stroke-opacity:1;paint-order:stroke fill markers"
       d="m 12.736107,16.35986 -1.121676,0.540287 -0.134205,0.109939 -0.04407,0.143118 -0.002,0.837915 0.02674,0.10251 0.06487,0.04902 0.562571,0.284256 h 0.227802 c 0.01867,0.0043 0.03721,0.0085 0.05695,0.0099 l 1.182588,0.08419 c 0.104654,0.0075 0.201163,-0.02952 0.272867,-0.09458 l 4.498587,-0.0015 c 0.03073,0.0064 0.06213,0.01027 0.09509,0.0079 l 0.11192,-0.0079 1.491111,-4.95e-4 0.466992,-0.374882 0.0515,-0.08617 0.0213,-0.122815 -0.01585,-0.894369 -0.04061,-0.142624 -0.0926,-0.05497 -0.93894,-0.388749 z m -0.204032,0.523945 h 6.960826 c 0.02211,0 0.03961,0.0175 0.03961,0.03961 v 0.01436 c 0,0.0044 -0.0031,0.0074 -0.0044,0.01139 -0.03177,-0.007 -0.06438,-0.01086 -0.09855,-0.0085 l -0.512554,0.03664 h -5.747559 l -0.676968,-0.04804 v -0.0059 c 0,-0.02211 0.0175,-0.03962 0.03961,-0.03962 z m -0.324369,0.139156 c -0.01482,0.01343 -0.02911,0.02737 -0.0416,0.04309 a 0.5001149,0.5001149 0 0 0 -0.294657,0.456098 0.5001149,0.5001149 0 0 0 0.171347,0.376368 l -0.0059,0.08171 a 0.50837574,0.50837574 0 0 1 -0.276829,-0.452632 0.50837574,0.50837574 0 0 1 0.44768,-0.50463 z m 7.475856,0.0049 a 0.50837574,0.50837574 0 0 1 0.473431,0.507106 0.50837574,0.50837574 0 0 1 -0.308027,0.466498 c -1.36e-4,-0.0053 8.8e-4,-0.01044 4.95e-4,-0.01585 l -0.0049,-0.06834 a 0.5001149,0.5001149 0 0 0 0.19559,-0.39665 0.5001149,0.5001149 0 0 0 -0.33675,-0.471946 c -0.0066,-0.007 -0.01269,-0.01443 -0.01981,-0.0208 z" />
    <path
       inkscape:export-ydpi="38.220001"
       inkscape:export-xdpi="38.220001"
       inkscape:export-filename="/home/sireliah/Aktywatory/dragit/logo_ah.png"
       sodipodi:nodetypes="cccccccccc"
       d="m 14.190973,13.109635 0.118852,-0.05072 h 0.2926 V 15.33128 H 14.27548 l -0.317302,-0.04812 8.9e-4,-0.151729 -0.0037,-1.436837 0.155962,-0.444454 z"
       style="fill:#ffffff;stroke-width:0.110975;stroke-miterlimit:4;stroke-dasharray:none"
       id="rect898" />
    <circle
       inkscape:export-ydpi="38.220001"
       inkscape:export-xdpi="38.220001"
       inkscape:export-filename="/home/sireliah/Aktywatory/dragit/logo_ah.png"
       cy="12.184396"
       cx="22.838699"
       id="path911"
       style="fill:#483e37;fill-opacity:1;stroke:none;stroke-width:0.0258744;stroke-miterlimit:4;stroke-dasharray:none;stroke-opacity:1"
       r="0.26337343" />
    <circle
       inkscape:export-ydpi="38.220001"
       inkscape:export-xdpi="38.220001"
       inkscape:export-filename="/home/sireliah/Aktywatory/dragit/logo_ah.png"
       cy="6.1613927"
       cx="5.4641109"
       id="path907"
       style="fill:#382f2b;fill-opacity:1;stroke:none;stroke-width:0.0191662;stroke-miterlimit:4;stroke-dasharray:none;stroke-opacity:1"
       r="0.41135925" />
    <path
       inkscape:export-ydpi="38.220001"
       inkscape:export-xdpi="38.220001"
       inkscape:export-filename="/home/sireliah/Aktywatory/dragit/logo_ah.png"
       sodipodi:nodetypes="sssssss"
       d="m 5.4041113,10.761044 c 0.196535,0 0.385859,0.160696 0.354757,0.354753 l -0.120438,0.751466 c -0.0311,0.194056 -0.03778,0.354753 -0.234319,0.354753 -0.196535,0 -0.248411,-0.177151 -0.270761,-0.37241 l -0.08399,-0.733809 c -0.02235,-0.19526 0.158221,-0.354753 0.354755,-0.354753 z"
       style="fill:#000000;stroke-width:0.173852;stroke-miterlimit:4;stroke-dasharray:none"
       id="rect921" />
    <rect
       inkscape:export-ydpi="38.220001"
       inkscape:export-xdpi="38.220001"
       inkscape:export-filename="/home/sireliah/Aktywatory/dragit/logo_ah.png"
       ry="0.022589535"
       y="14.357182"
       x="3.4478652"
       height="2.6902008"
       width="3.939281"
       id="rect956"
       style="fill:#f6d32d;fill-opacity:1;stroke:url(#linearGradient16123);stroke-width:0.253553;stroke-miterlimit:4;stroke-dasharray:none" />
    <rect
       inkscape:export-ydpi="38.220001"
       inkscape:export-xdpi="38.220001"
       inkscape:export-filename="/home/sireliah/Aktywatory/dragit/logo_ah.png"
       ry="0.019507358"
       y="14.275605"
       x="3.3773506"
       height="0.67491055"
       id="rect958"
       style="fill:#e5a50a;fill-opacity:1;stroke:none;stroke-width:0.017885;stroke-linejoin:bevel;stroke-miterlimit:4;stroke-dasharray:none"
       width="0.81568962" />
    <rect
       inkscape:export-ydpi="38.220001"
       inkscape:export-xdpi="38.220001"
       inkscape:export-filename="/home/sireliah/Aktywatory/dragit/logo_ah.png"
       style="fill:#e5a50a;fill-opacity:1;stroke:none;stroke-width:0.017885;stroke-linejoin:bevel;stroke-miterlimit:4;stroke-dasharray:none"
       id="rect958-3"
       width="0.81568962"
       height="0.67491055"
       x="3.3722694"
       y="16.435196"
       ry="0.019507358" />
    <rect
       inkscape:export-ydpi="38.220001"
       inkscape:export-xdpi="38.220001"
       inkscape:export-filename="/home/sireliah/Aktywatory/dragit/logo_ah.png"
       ry="0.019507358"
       y="16.461174"
       x="6.6351724"
       height="0.67491055"
       width="0.81568962"
       id="rect958-3-6"
       style="fill:#e5a50a;fill-opacity:1;stroke:none;stroke-width:0.017885;stroke-linejoin:bevel;stroke-miterlimit:4;stroke-dasharray:none" />
    <rect
       inkscape:export-ydpi="38.220001"
       inkscape:export-xdpi="38.220001"
       inkscape:export-filename="/home/sireliah/Aktywatory/dragit/logo_ah.png"
       style="fill:#e5a50a;fill-opacity:1;stroke:none;stroke-width:0.017885;stroke-linejoin:bevel;stroke-miterlimit:4;stroke-dasharray:none"
       id="rect958-3-6-7"
       width="0.81568962"
       height="0.67491055"
       x="6.6271825"
       y="14.281438"
       ry="0.019507358" />
    <rect
       inkscape:export-ydpi="38.220001"
       inkscape:export-xdpi="38.220001"
       inkscape:export-filename="/home/sireliah/Aktywatory/dragit/logo_ah.png"
       ry="0.027030477"
       y="13.401862"
       x="22.67857"
       height="0.46964666"
       width="1.0264893"
       id="rect1011"
       style="fill:#6c5d53;stroke-width:0.115902;stroke-linejoin:round;stroke-miterlimit:4;stroke-dasharray:none" />
    <rect
       inkscape:export-ydpi="38.220001"
       inkscape:export-xdpi="38.220001"
       inkscape:export-filename="/home/sireliah/Aktywatory/dragit/logo_ah.png"
       style="fill:#6c5d53;stroke-width:0.115902;stroke-linejoin:round;stroke-miterlimit:4;stroke-dasharray:none"
       id="rect1011-5"
       width="1.0264893"
       height="0.46964666"
       x="22.685459"
       y="13.925114"
       ry="0.027030477" />
    <rect
       inkscape:export-ydpi="38.220001"
       inkscape:export-xdpi="38.220001"
       inkscape:export-filename="/home/sireliah/Aktywatory/dragit/logo_ah.png"
       ry="0.027030477"
       y="14.451132"
       x="22.68832"
       height="0.46964666"
       width="1.0264893"
       id="rect1011-5-3"
       style="fill:#6c5d53;stroke-width:0.115902;stroke-linejoin:round;stroke-miterlimit:4;stroke-dasharray:none" />
    <circle
       inkscape:export-ydpi="38.220001"
       inkscape:export-xdpi="38.220001"
       inkscape:export-filename="/home/sireliah/Aktywatory/dragit/logo_ah.png"
       cy="7.5198584"
       cx="9.2204971"
       id="path1176"
       style="fill:#382f2b;fill-opacity:1;stroke:none;stroke-width:0.0191662;stroke-linecap:round;stroke-linejoin:round;stroke-miterlimit:4;stroke-dasharray:none;stroke-opacity:1;paint-order:stroke fill markers"
       r="0.34087741" />
    <path
       inkscape:export-ydpi="38.220001"
       inkscape:export-xdpi="38.220001"
       inkscape:export-filename="/home/sireliah/Aktywatory/dragit/logo_ah.png"
       sodipodi:nodetypes="sssssssss"
       d="m 14.249795,12.787826 1.19332,0.0065 c 0.01735,1.01e-4 0.0313,0.01398 0.0313,0.03128 v 0.311649 c 0,0.01731 -0.01403,0.03285 -0.0313,0.03128 l -1.144102,-0.104931 c -0.01726,-0.0018 -0.250134,0.03646 -0.246022,0.01961 l 0.03707,-0.151914 c 0.0041,-0.01684 0.142384,-0.144021 0.159725,-0.143919 z"
       style="fill:#483e37;fill-opacity:1;stroke:none;stroke-width:0.0258744;stroke-linecap:round;stroke-linejoin:round;stroke-miterlimit:4;stroke-dasharray:none;stroke-opacity:1;paint-order:stroke fill markers"
       id="rect1180" />
    <rect
       inkscape:export-ydpi="38.220001"
       inkscape:export-xdpi="38.220001"
       inkscape:export-filename="/home/sireliah/Aktywatory/dragit/logo_ah.png"
       ry="0.011237528"
       y="18.323437"
       x="8.3624306"
       height="0.96898973"
       width="13.677428"
       id="rect3268"
       style="fill:#77767b;fill-opacity:1;stroke:none;stroke-width:0.170339;stroke-linecap:round;stroke-linejoin:round;stroke-miterlimit:4;stroke-dasharray:none;stroke-opacity:1;paint-order:stroke fill markers" />
    <text
       id="text913"
       y="168.37952"
       x="48.260094"
       style="font-style:normal;font-weight:normal;font-size:10.5833px;line-height:1.25;font-family:sans-serif;fill:#000000;fill-opacity:1;stroke:none;stroke-width:0.264583"
       xml:space="preserve"
       inkscape:export-xdpi="38.220001"
       inkscape:export-ydpi="38.220001"><tspan
         style="stroke-width:0.264583"
         y="168.37952"
         x="48.260094"
         id="tspan911"
         sodipodi:role="line" /></text>
  </g>
</svg>
